PathFileType	4	(X/Y/Z)	C:/Users/beibeiliu/ov580/test_trc/User3\sequence.29_training_dense_left.trc
DataRate	CameraRate	NumFrames	NumMarkers	Units	OrigDataRate	OrigDataStartFrame	OrigNumFrames
120	120	24	19	mm	120	1	128
Frame#	Time	ThumbCMC			ThumbMCP			ThumbIP			ThumbTip			IndexMCP			IndexPIP			IndexTip			MiddleMCP			MiddlePIP			MiddleTip			RingMCP			RingPIP			RingTip			PinkyMCP			PinkyPIP			PinkyTip			BackHand1			BackHand2			BackHand3	
		X0	Y0	Z0	X1	Y1	Z1	X2	Y2	Z2	X3	Y3	Z3	X4	Y4	Z4	X5	Y5	Z5	X6	Y6	Z6	X7	Y7	Z7	X8	Y8	Z8	X9	Y9	Z9	X10	Y10	Z10	X11	Y11	Z11	X12	Y12	Z12	X13	Y13	Z13	X14	Y14	Z14	X15	Y15	Z15	X16	Y16	Z16	X17	Y17	Z17	X18	Y18	Z18	
0	0	-13.1347	19.3618	22.8066	-0.142336	13.2463	-2.27236	17.3163	11.7223	-27.2492	27.7192	8.42072	-49.7548	-39.4184	43.094	-49.2247	-37.1119	45.505	-74.2122	-39.01	51.8464	-103.203	-65.8456	41.0041	-54.9245	-72.9196	39.2554	-81.0826	-80.9808	35.9672	-110.766	-77.0419	14.016	-48.6604	-75.8473	-13.5835	-56.2717	-64.0627	-34.6293	-32.3839	-92.0554	0.755201	-30.7284	-82.8561	-21.1063	-29.633	-62.9943	-34.3368	-12.0647	-75.5949	44.7868	1.36896	-73.5722	40.877	38.1333	-42.1864	44.9737	16.4369	
1	0.00833333	-16.186	17.8137	20.797	-0.68601	13.0094	-3.27609	10.5722	10.001	-28.0696	25.0274	6.10476	-49.7873	-41.1191	42.1031	-50.4094	-40.443	45.5967	-77.7969	-42.0166	49.4257	-104.087	-67.0578	39.6961	-57.3694	-72.5696	37.8538	-78.7926	-82.6237	34.1099	-110.504	-82.8651	13.1981	-46.2119	-76.3143	-15.0219	-55.1702	-62.6737	-37.5308	-28.1016	-92.4815	3.73954	-28.5364	-81.2458	-26.1063	-27.3881	-66.9562	-38.2791	-11.0872	-78.4269	42.3423	5.11298	-73.8106	41.6384	35.4394	-42.4258	43.1922	14.4632	
2	0.0166667	-17.2129	16.5231	22.6679	-3.46446	11.6787	-0.595849	13.4998	9.7172	-30.6365	21.6128	4.94634	-45.9945	-37.5251	42.1491	-54.5968	-41.0947	44.1914	-75.6576	-38.4018	48.8408	-100.568	-69.2949	39.526	-53.46	-74.1114	37.0625	-79.777	-80.2273	34.3944	-109.663	-78.818	14.9004	-45.426	-76.054	-19.4489	-52.5346	-65.0731	-37.674	-27.7537	-94.5794	1.93349	-29.7586	-84.0216	-24.9045	-27.4747	-67.4261	-36.431	-10.983	-79.9277	43.0169	4.57199	-73.987	40.0669	34.8422	-44.5058	42.2194	17.3051	
3	0.025	-14.4859	17.3578	18.0694	-4.09442	11.5592	-3.47404	11.8645	8.74535	-28.4694	22.8046	3.82357	-44.236	-40.4424	40.5297	-53.6636	-37.8828	44.5448	-79.2537	-44.0768	47.0243	-98.5686	-66.8758	38.4965	-52.8891	-75.3781	35.778	-81.6045	-83.5034	32.6411	-109.401	-78.7355	11.9656	-47.2079	-77.6193	-19.9373	-51.9603	-65.8945	-38.0267	-32.107	-91.4001	4.29431	-28.851	-81.7017	-23.4264	-30.2412	-67.4439	-39.5558	-12.4998	-78.3861	41.716	1.44634	-77.8167	40.1415	34.1544	-43.2771	42.396	14.1314	
4	0.0333333	-18.2074	14.3508	22.1123	-2.41145	10.2709	-4.90283	14.9861	6.71141	-26.551	26.2436	2.43591	-45.1201	-36.7794	39.3505	-50.4761	-38.3615	42.4014	-73.8395	-39.2021	47.1922	-98.4489	-66.1296	38.2892	-58.745	-73.0496	33.9827	-84.2128	-80.4424	32.2484	-108.244	-83.0978	9.8453	-44.2973	-76.7894	-22.2648	-51.7815	-66.1718	-40.3359	-27.0465	-95.1625	-1.27488	-27.9536	-82.0282	-22.4056	-29.5839	-67.3462	-40.3592	-11.5538	-78.4471	42.4209	2.58817	-71.46	40.3039	32.5676	-43.3026	40.0377	14.2149	
5	0.0416667	-16.9542	14.5332	18.8816	-2.09755	10.0047	-2.99576	13.7811	7.43988	-29.3727	27.7528	2.1224	-45.3966	-34.4178	38.2709	-48.8483	-40.4022	42.1945	-76.9118	-38.3497	46.1466	-98.1112	-68.1216	36.5739	-56.0576	-71.491	34.4591	-80.834	-82.1271	31.3334	-108.024	-82.8313	9.82698	-43.6688	-79.6198	-22.2931	-50.0888	-69.7316	-41.3485	-29.7598	-93.0782	0.852944	-28.555	-83.4033	-21.2536	-29.0917	-68.7971	-38.7115	-9.90261	-73.383	42.0009	6.04643	-72.2863	39.1482	35.287	-38.5307	39.1676	15.7612	
6	0.05	-13.1629	15.0387	20.0989	1.93556	10.448	-2.69235	13.903	5.59116	-24.4588	26.1694	2.74457	-43.8719	-37.0514	39.6313	-52.4777	-33.7782	41.3972	-73.0923	-37.9884	46.4147	-97.5707	-66.9013	37.9591	-55.7742	-68.3383	35.9828	-78.2032	-78.3961	34.6887	-109.978	-76.4829	13.6651	-42.9487	-78.2281	-17.8385	-51.1647	-64.7834	-42.5049	-29.5546	-93.525	1.37536	-27.6733	-81.365	-24.6996	-26.3331	-67.8948	-38.8428	-9.37779	-70.4171	41.1386	6.53974	-71.8706	40.1435	37.558	-39.7482	41.1581	18.27	
7	0.0583333	-11.8067	14.1572	25.4221	2.48113	9.11759	0.775584	19.0433	7.50975	-27.1791	30.4339	2.38676	-43.0007	-33.5	40.5456	-50.8286	-31.664	42.6116	-77.5454	-36.4247	46.5486	-97.5384	-62.7287	39.4324	-55.5329	-67.2049	37.252	-78.4603	-73.226	35.5615	-113.35	-74.7826	15.0517	-44.2236	-79.579	-16.1267	-51.2141	-69.3299	-39.6274	-33.0781	-91.6739	2.03125	-30.1632	-82.5869	-20.074	-28.8232	-66.1091	-37.8404	-8.25586	-73.7939	42.7643	7.74391	-70.1588	40.9897	36.1758	-34.9651	42.1757	17.8173	
8	0.0666667	-12.0146	13.1166	23.0751	1.96241	8.20873	-1.6372	14.3147	4.67902	-25.8916	26.2533	0.502304	-48.3964	-32.0089	40.1335	-47.7802	-31.8725	42.6852	-77.9154	-30.7734	43.1809	-103.765	-59.7517	41.0137	-51.5094	-68.8841	38.4357	-81.1602	-72.6619	33.8184	-110.534	-76.292	16.3753	-45.5792	-79.3492	-12.3989	-55.0295	-66.4165	-39.1435	-37.874	-92.8887	7.16369	-28.1327	-83.8782	-18.2112	-31.6061	-69.1213	-37.5092	-11.8083	-70.6846	42.1428	6.71842	-70.2517	39.279	39.8415	-36.5107	39.4248	19.6452	
9	0.075	-14.4435	11.7032	25.9485	5.74495	5.24204	0.050431	17.8362	0.5914	-23.6728	19.3992	-5.74084	-46.2185	-29.1765	42.617	-46.7813	-31.0169	44.9676	-72.2867	-31.1037	40.9414	-100.93	-55.9125	46.4135	-51.7296	-60.4216	44.7433	-80.0313	-66.5302	32.8051	-109.653	-72.0863	22.8763	-47.7676	-80.5163	-2.41101	-60.6455	-70.5894	-32.7938	-48.4632	-88.5767	13.804	-29.4222	-84.7713	-16.0203	-35.8533	-70.7106	-33.1187	-19.3767	-72.8502	43.5647	9.26023	-70.5768	40.4205	37.2081	-35.4167	39.5976	22.482	
10	0.0833333	-12.8128	12.5139	25.3859	3.2156	4.31881	1.91014	14.2968	-1.93187	-25.1567	17.1221	-8.61289	-49.6244	-29.9646	43.5697	-46.4325	-25.9443	43.1353	-73.8306	-29.3156	30.6676	-102.007	-54.866	49.7693	-51.564	-57.5321	46.2202	-78.8799	-65.3413	26.4785	-106.68	-76.9282	28.5376	-44.7916	-79.4122	6.33306	-64.5525	-70.8992	-27.2041	-56.9742	-88.5487	18.5031	-30.65	-86.5752	-9.20374	-42.4958	-74.0145	-28.7668	-26.3152	-72.4125	44.6967	10.5547	-70.7743	40.1038	36.6362	-37.7765	41.4618	23.1638	
11	0.0916667	-16.9838	12.1949	29.5424	5.16987	4.29842	4.57841	13.7561	-1.49549	-23.6171	7.68445	-7.66454	-47.3063	-27.5275	45.2881	-45.2066	-25.3141	40.1951	-75.516	-27.8884	21.8149	-94.5056	-52.5362	50.2443	-47.6261	-57.1806	43.2461	-80.3206	-59.0434	11.0148	-101.355	-73.2188	33.3122	-42.364	-73.4348	12.7073	-65.7218	-71.5554	-19.7183	-59.4365	-85.5767	20.8386	-35.4107	-85.0606	-1.27784	-45.3726	-75.4404	-27.2319	-28.0841	-72.0621	47.7913	10.1352	-73.7763	42.0544	39.8894	-35.394	41.2117	22.9889	
12	0.1	-16.7838	16.0661	27.4439	-0.701375	6.83276	4.34489	12.0493	-0.0193782	-23.8423	4.93328	-5.45684	-49.3011	-25.9739	47.2106	-44.7016	-22.3372	37.9077	-73.5499	-24.7016	12.2618	-85.2544	-48.591	50.8883	-49.1097	-52.6621	36.979	-79.7488	-53.3425	3.0125	-87.3823	-72.1346	36.1592	-43.3215	-67.9744	12.1082	-65.8563	-65.1167	-17.3808	-53.369	-87.705	24.522	-31.19	-84.5144	2.4687	-46.7173	-71.4548	-23.3024	-29.7446	-67.5894	46.6498	9.50799	-71.6591	41.0715	42.7037	-37.731	42.0691	27.1593	
13	0.108333	-14.6618	14.673	32.065	4.8885	8.95496	4.03477	12.1472	4.45462	-25.3557	0.482317	-2.23917	-49.8767	-28.6283	47.529	-40.2896	-23.7935	37.3261	-70.848	-23.2844	1.81704	-74.1663	-47.9778	51.5626	-50.4935	-46.7208	32.7261	-77.5001	-45.3333	-2.92784	-74.1581	-66.8756	37.8941	-44.9909	-66.8977	16.4907	-63.8413	-60.5284	-13.2539	-49.6679	-81.9712	28.0949	-35.228	-80.1157	2.47195	-48.1688	-68.6302	-17.6449	-32.0395	-68.0711	47.0227	10.3531	-71.5705	43.0998	41.1332	-37.475	44.8759	30.9699	
14	0.116667	-12.1582	17.1468	32.3958	5.68211	10.3026	8.15318	14.1738	5.49213	-22.284	0.880313	0.807659	-46.5872	-27.3178	48.7967	-43.1335	-23.5834	34.2562	-70.2769	-21.5377	1.07952	-67.5525	-44.3369	51.5531	-47.2895	-42.6435	33.0482	-75.7918	-44.0392	-7.45342	-65.395	-64.6476	40.9033	-43.9184	-64.5907	17.9722	-64.948	-57.9522	-9.03336	-51.4655	-85.1373	31.5992	-35.6233	-82.2013	12.1925	-51.9983	-69.4272	-16.4795	-37.2353	-71.4539	48.7955	13.5355	-70.6131	41.2259	39.9488	-38.222	45.798	28.6281	
15	0.125	-12.3287	17.3912	30.9476	5.37181	11.773	5.13482	15.221	7.87338	-26.1522	5.74286	-0.379162	-46.64	-23.8852	49.8724	-42.6379	-18.6546	35.2962	-71.6284	-23.4244	0.0597373	-71.3336	-46.9908	53.8485	-47.1581	-41.7784	34.2759	-78.9206	-43.0799	-1.7749	-75.1855	-66.3376	44.9319	-42.7249	-64.4495	26.3416	-67.4214	-61.5282	-5.8381	-60.206	-86.6528	35.6288	-34.3789	-82.1112	19.3722	-54.8253	-70.8073	-9.2474	-50.9535	-68.281	49.7287	9.95419	-70.8064	42.9457	40.0085	-35.4836	48.7833	25.8353	
16	0.133333	-12.7525	17.7862	31.2004	6.95522	12.1405	2.23168	14.9052	6.39406	-23.1859	7.32864	0.711872	-50.2586	-26.0079	49.9448	-42.1087	-23.6498	35.8132	-74.5044	-23.7961	7.09583	-81.884	-50.7362	53.9717	-46.7304	-49.2287	41.5874	-80.3272	-48.3807	6.35303	-89.0791	-65.7047	46.089	-44.4992	-70.4362	30.6004	-71.703	-66.2009	-3.60426	-74.52	-87.9959	36.1789	-35.0888	-88.2628	24.1692	-56.0319	-80.1147	-2.09941	-62.7906	-70.6235	49.1943	13.4014	-70.8499	45.1101	37.8964	-38.6563	48.6699	23.7041	
17	0.141667	-12.2539	17.5426	28.5278	3.94513	9.14548	6.65361	15.6079	3.09866	-20.7671	14.94	-3.5774	-47.5253	-24.2936	48.5053	-42.8007	-24.7889	38.3286	-76.3513	-24.6437	14.3278	-90.673	-51.5003	54.7897	-51.8107	-49.6501	46.0093	-80.7309	-53.6489	12.7406	-102.043	-71.7887	46.6937	-45.1602	-74.9532	37.288	-71.3412	-69.1801	8.07199	-87.0258	-89.0632	36.1108	-32.1402	-93.923	24.4832	-57.8872	-90.4208	5.51257	-70.215	-69.6685	50.1421	9.95751	-73.9851	44.7264	36.7138	-41.167	46.9499	23.9415	
18	0.15	-12.3204	16.7556	26.286	1.95671	7.90175	6.53443	18.3099	0.796745	-23.5075	16.8874	-5.67041	-44.3978	-27.2109	45.163	-43.7312	-23.1739	40.7987	-75.9894	-26.8106	21.8841	-97.9921	-52.2429	52.9538	-49.3922	-55.461	46.6556	-84.3269	-56.6827	27.8778	-107.187	-73.7911	44.3569	-43.3025	-79.8687	36.9989	-72.8693	-78.5678	14.8856	-96.2288	-92.5472	33.1156	-31.9741	-95.5464	24.9185	-57.4578	-96.2288	11.3402	-74.0372	-69.7485	47.3817	10.6913	-74.286	44.5164	39.2692	-42.525	43.1282	23.0076	
19	0.158333	-15.1453	13.7473	25.5506	6.05415	5.52857	5.44559	19.2687	-1.05593	-19.8557	27.0852	-8.8989	-41.1187	-29.7525	43.4507	-49.9822	-24.237	40.2361	-74.2974	-25.1174	27.2644	-101.345	-54.3412	50.0013	-54.1124	-51.7183	46.4501	-82.703	-57.1959	34.2006	-111.289	-78.0457	40.5073	-47.8931	-79.9798	36.2634	-70.2218	-83.1175	22.0034	-98.728	-95.8889	29.7927	-30.4325	-101.873	23.7815	-53.0213	-105.836	11.745	-74.2475	-71.0046	47.3045	7.07468	-72.2844	39.3804	39.07	-36.8642	41.2335	22.0417	
20	0.166667	-17.1197	13.0249	25.9228	6.01155	5.78059	1.75941	22.4774	-0.733346	-21.984	32.5359	-9.34822	-40.9677	-30.6747	38.9872	-48.0361	-26.6578	37.8335	-79.7396	-24.7988	30.3688	-106.044	-57.8178	45.0233	-53.7485	-53.1409	44.2304	-83.21	-57.678	36.8114	-115.695	-79.1835	36.7224	-46.6624	-85.0833	34.3087	-75.5937	-85.9954	25.3971	-98.7553	-97.2616	26.4536	-32.3999	-104.704	20.6792	-53.1325	-108.765	14.3947	-74.6679	-72.1994	42.6719	5.19397	-72.4005	40.04	32.8555	-41.6382	41.3167	15.5035	
21	0.175	-15.8991	14.4151	20.8205	2.27479	5.07153	4.9507	22.2849	-1.41928	-19.8971	30.6472	-10.281	-35.1776	-31.8469	35.6066	-52.9789	-24.7324	34.9893	-78.8383	-23.1117	31.4173	-104.065	-55.4644	42.3833	-59.6356	-58.394	40.768	-87.4185	-59.0738	36.5417	-115.864	-80.6668	33.4962	-47.5014	-85.8508	31.7159	-75.9392	-91.7469	25.4228	-99.3291	-98.6849	23.6512	-36.4748	-106.57	18.4223	-56.8217	-114.917	13.595	-73.1888	-73.6806	41.5987	1.92534	-74.8017	39.3466	33.9822	-42.3872	39.1107	14.5148	
22	0.183333	-17.7794	11.658	22.4171	1.34259	4.61759	-0.948027	21.0194	-2.90337	-22.2979	34.3024	-11.421	-39.4401	-32.2376	31.8247	-50.6061	-28.6297	31.5048	-79.1017	-27.6655	28.1651	-103.592	-58.6353	37.8559	-58.4674	-64.0169	37.1273	-83.6829	-65.7031	33.6193	-119.452	-80.1779	29.7505	-47.2495	-90.6565	28.7451	-72.7679	-92.6185	23.1439	-98.8448	-103.52	21.1132	-34.3864	-111.392	15.4223	-55.4217	-121.007	13.6163	-71.9345	-78.275	40.2687	2.06903	-76.3424	40.639	34.3214	-42.7382	38.4665	13.5916	
23	0.191667	-20.7988	11.492	20.9619	-2.37311	2.71337	0.0509713	16.5114	-5.09339	-17.3199	30.3663	-11.8706	-38.4572	-32.8886	30.0981	-53.7286	-32.2907	29.1005	-83.0083	-29.3368	26.1369	-103.277	-63.6084	37.0504	-60.3217	-60.3615	35.0507	-86.4985	-64.3732	30.2559	-119.266	-87.1428	29.5447	-48.2436	-90.3586	26.5138	-75.0486	-95.7335	21.2902	-99.2698	-101.074	20.8716	-34.2746	-110.381	15.7111	-54.4453	-119.339	12.0857	-71.4326	-78.4351	37.4338	4.98876	-79.3637	38.2839	32.3564	-46.0425	36.1323	11.5302	
